<?xml version="1.0" encoding="UTF-8"?>
<svg width="42px" height="65px" viewBox="0 0 42 65" version="1.1" xmlns="http://www.w3.org/2000/svg" xmlns:xlink="http://www.w3.org/1999/xlink">
    <!-- Generator: Sketch 49 (51002) - http://www.bohemiancoding.com/sketch -->
    <title>doller</title>
    <desc>Created with Sketch.</desc>
    <defs></defs>
    <g id="Page-1" stroke="none" stroke-width="1" fill="none" fill-rule="evenodd">
        <g id="留学までの流れ" transform="translate(-362.000000, -1500.000000)">
            <g id="doller" transform="translate(362.000000, 1500.000000)">
                <path d="M0,6.70985305 C0,3.01937469 3.07155553,0 6.82581274,0 L35.1741873,0 C38.9284445,0 42,3.01937469 42,6.70985305 L42,58.2889633 C42,61.9794417 38.9284445,65 35.1741873,65 L6.82581274,65 C3.07155553,65 0,61.9794417 0,58.2889633 L0,6.70985305" id="Fill-3151" fill="#FFFFFF"></path>
                <path d="M21.4476739,32.9667413 C16.666928,32.1610159 10.2501533,31.0024092 10.0136628,25.7055775 C9.78930003,20.661664 12.2900352,18 20.3464772,18 C28.4041321,18 29.9855863,22.0996852 29.9855863,22.0996852 C29.9855863,22.0996852 30.316673,22.9656292 29.7757768,23.4425609 C29.2336679,23.9206969 27.490915,25.0853254 27.490915,25.0853254 C27.490915,25.0853254 26.8214651,25.7320737 26.2575262,25.0853254 C25.73846,24.4891609 23.7919615,22.8463963 20.0347949,22.8463963 C16.2764156,22.8463963 15.1194314,23.7183623 15.2843684,25.2045584 C15.4068583,26.3089683 16.6366088,27.5338154 22.1389537,28.0408564 C27.6412987,28.5491017 32,31.4745234 32,35.9824909 C32,40.4916629 28.6624524,42.9389485 21.98857,42.9991671 C15.3146877,43.0593858 10.9850929,39.8340753 10.9850929,39.8340753 C10.9850929,39.8340753 9.93240708,39.0873641 10.4733032,38.0130636 L12.0668852,35.9824909 C12.0668852,35.9824909 12.6381006,35.0575326 13.9309152,35.8030394 C15.2237298,36.5497506 18.7286398,38.2804343 21.5070997,38.311748 C23.2712782,38.3318209 24.885073,37.6549634 26.3484841,36.2811754 C26.3484841,36.2811754 26.227207,33.7736711 21.4476739,32.9667413 Z" id="Fill-3152" fill="#003D9C"></path>
                <path d="M22.4580925,20 L18.5407033,20 C18.2432563,20 18,19.7804931 18,19.5134083 L18,15.4855104 C18,15.2184256 18.2432563,15 18.5407033,15 L22.4580925,15 C22.7567437,15 23,15.2184256 23,15.4855104 L23,19.5134083 C23,19.7804931 22.7567437,20 22.4580925,20 Z" id="Fill-3153" fill="#003D9C"></path>
                <path d="M23,45.5134083 C23,45.7804931 22.7567437,46 22.4580925,46 L18.5407033,46 C18.2432563,46 18,45.7804931 18,45.5134083 L18,41.4855104 C18,41.2184256 18.2432563,41 18.5407033,41 L22.4580925,41 C22.7567437,41 23,41.2184256 23,41.4855104 L23,45.5134083" id="Fill-3154" fill="#003D9C"></path>
            </g>
        </g>
    </g>
</svg>