<?xml version="1.0" encoding="UTF-8"?>
<svg width="42px" height="64px" viewBox="0 0 42 64" version="1.1" xmlns="http://www.w3.org/2000/svg" xmlns:xlink="http://www.w3.org/1999/xlink">
    <!-- Generator: Sketch 49 (51002) - http://www.bohemiancoding.com/sketch -->
    <title>Group 12</title>
    <desc>Created with Sketch.</desc>
    <defs></defs>
    <g id="Page-1" stroke="none" stroke-width="1" fill="none" fill-rule="evenodd">
        <g id="留学までの流れ" transform="translate(-1033.000000, -1146.000000)" fill="#FFFFFF">
            <g id="Group-12" transform="translate(1033.000000, 1146.000000)">
                <path d="M37.0787921,12.2697634 C36.7627111,13.0982826 26.5226162,43.7093239 26.2049858,44.9551487 C25.8889048,46.1994504 25.5728238,46.0958855 24.9406618,45.9923207 C24.3069503,45.8887558 8.25964174,41.0120676 7.8382004,40.9085028 C7.41675907,40.8034148 7.05574498,40.7226951 7.30984931,39.9733727 C7.73284007,38.7290709 17.4755722,8.166766 17.7606649,7.18442251 C17.9713855,6.45794524 18.0782953,6.04368566 18.7120067,6.14725056 C19.3441687,6.25081545 35.4968376,10.713244 36.4450806,10.9203738 C37.3948731,11.1275036 37.3948731,11.4381982 37.0787921,12.2697634 Z M24.3627293,53.0347335 L23.495056,55.7030525 L17.90631,53.9485414 L18.9537157,50.7334606 L23.9831223,52.3128252 C24.2914562,52.4087751 24.461892,52.7331769 24.3627293,53.0347335 Z M22.3407406,59.2547192 C22.2431273,59.5562758 21.914651,59.7222842 21.6063171,59.6263344 L16.5753611,58.0469698 L17.7095341,54.5577466 L23.2967307,56.3122578 L22.3407406,59.2547192 Z M16.2592801,53.8632526 C15.7464232,55.4456633 14.0219224,56.3198728 12.410529,55.8142325 C10.8006851,55.3085921 9.91131993,53.6150015 10.4272757,52.0310678 C10.941682,50.4486571 12.6646334,49.5744476 14.2744773,50.080088 C15.8858707,50.5857283 16.7736864,52.280842 16.2592801,53.8632526 Z M3.4456041,49.4069161 L4.31327745,46.7385971 C4.41244011,46.4355175 4.74091645,46.269509 5.04770096,46.3654589 L10.4133309,48.0499114 L9.36592525,51.2665152 L3.4456041,49.4069161 Z M8.03497632,55.3649436 L2.67089576,53.680491 C2.36256184,53.5830182 2.19367542,53.2601394 2.29283809,52.9585828 L3.24727877,50.0161214 L9.16914934,51.8757205 L8.03497632,55.3649436 Z M26.8263019,5.1801372 C26.9068715,4.93493209 27.1346358,4.95320825 27.4119814,5.02022082 C27.5018475,5.04154301 28.7010961,5.32025441 29.1442292,5.41315822 C29.622999,5.5152001 29.6989204,5.7466981 29.6446908,5.94773583 C29.5904612,6.14877357 29.325511,6.22644724 28.9923864,6.15486562 C28.7785669,6.10917523 27.6815799,5.8396019 27.3019728,5.74517508 C26.9239151,5.64922526 26.748831,5.42534232 26.8263019,5.1801372 Z M33.0936924,5.93859775 C33.4872442,5.93859775 33.806424,6.25386148 33.806424,6.63918381 C33.806424,7.02602915 33.4872442,7.33976986 33.0936924,7.33976986 C32.7001405,7.33976986 32.3809607,7.02602915 32.3809607,6.63918381 C32.3809607,6.25386148 32.7001405,5.93859775 33.0936924,5.93859775 Z M39.506728,4.7978609 C38.0285845,3.96781874 25.0444727,0.335432367 20.9276726,0.0247376836 C16.8108724,-0.285957 16.7055121,2.41129929 16.177161,3.55355916 C15.6503593,4.69429601 0.449032236,51.4919211 0.449032236,51.4919211 C-0.184679188,53.7749179 -0.290039522,55.642132 1.08119424,57.3022163 C2.45397743,58.9623007 18.2890159,63.4247292 21.2437536,63.9440767 C24.20159,64.4619012 25.4674634,61.2452974 25.8889048,60.0009956 C26.3118955,58.7551709 40.7741509,13.8262829 41.7239433,10.1938965 C42.6737357,6.56151013 40.9848715,5.62790307 39.506728,4.7978609 Z" id="Fill-2508"></path>
            </g>
        </g>
    </g>
</svg>