<?xml version="1.0" encoding="UTF-8"?>
<svg width="64px" height="60px" viewBox="0 0 64 60" version="1.1" xmlns="http://www.w3.org/2000/svg" xmlns:xlink="http://www.w3.org/1999/xlink">
    <!-- Generator: Sketch 49 (51002) - http://www.bohemiancoding.com/sketch -->
    <title>Group 6</title>
    <desc>Created with Sketch.</desc>
    <defs></defs>
    <g id="Page-1" stroke="none" stroke-width="1" fill="none" fill-rule="evenodd">
        <g id="留学までの流れ" transform="translate(-355.000000, -1775.000000)">
            <g id="Group-6" transform="translate(355.000000, 1775.000000)">
                <path d="M9.57111329,50.7199856 C9.53445316,50.3227201 9.77354095,48.775887 9.32883767,48.3004196 C8.88413438,47.8249522 8.15890142,47.4370709 7.55321236,47.7545705 C6.94592938,48.0720701 6.26532614,49.3389405 4.82601766,49.2404061 C2.56902894,49.0855664 2,47.2587706 2,45.5743023 C2,43.6912012 3.06792545,42.3054639 4.72560078,42.3054639 C6.38327612,42.3054639 6.76422266,43.1563003 7.25036783,43.7912996 C7.73491908,44.4262988 9.37027955,44.3856338 9.32883767,43.4221867 C9.31608632,43.1453521 9.28420795,42.9044903 9.32883767,42.391486 C9.37027955,41.9081984 9.29217754,41.2200219 8.76459049,39.9265629 C8.56216282,39.4307631 8.03616969,38.5204932 8.56216282,38.0450259 C9.19813634,37.4694601 9.57270721,37.7478587 10.9036292,37.9089546 C12.9024031,38.1529444 13.532001,38.0809987 14.4612555,38.0684864 C17.193232,38.0293855 16.6704267,36.9189189 16.1858754,36.4809884 C15.7013242,36.046186 15.255027,35.1124556 15.255027,34.0817549 C15.255027,33.3873222 15.9627268,31.9937648 18.0172879,32.000021 C20.1387935,32.0078412 20.7731731,33.2371746 20.6600049,34.419587 C20.5627759,35.4502877 20.2137077,35.7255583 19.327489,36.7202861 C18.7664296,37.3505932 18.7967141,37.9574398 20.6042178,38.1075874 C21.4872487,38.1826611 22.2475478,38.1044593 23.1066699,38.1075874 C25.6521579,38.1185356 25.3716282,37.4006424 26.6371996,37.5242014 C27.5425454,37.6133515 28,38.7378945 28,41.0166971 C28,43.2954997 27.5999264,44.3856338 26.5399706,44.4841682 C25.4784208,44.5842666 24.8791074,44.2323581 24.4184649,43.642716 C23.6071604,42.6026311 21.0329819,42.7996998 21.0329819,45.4757679 C21.0329819,47.9281787 22.3447769,48.81968 23.6071604,48.81968 C24.8695439,48.81968 25.3748161,47.605987 26.4347719,47.8531049 C27.4947278,48.1002228 27.8979892,48.5459735 27.8979892,50.8247761 C27.8979892,53.1051427 26.9894556,54.243762 25.9294998,54.1452277 C24.8695439,54.0451293 24.8695439,53.4007458 23.4047327,53.4007458 C21.9415154,53.4007458 20.2790584,53.1051427 20.2790584,54.0451293 C20.2790584,54.9866798 21.6418588,54.9866798 21.6418588,56.4240303 C21.6418588,57.8598167 20.9357528,59 18.0571359,59 C15.1801128,59 14.7226582,57.7112331 14.7226582,56.7696826 C14.7226582,55.829696 16.0344532,54.9866798 16.0344532,54.3923456 C16.0344532,53.7980113 15.3825405,53.3022115 14.4724129,53.3022115 C13.5638794,53.3022115 11.9396763,53.7933192 11.24154,54.243762 C9.97596861,55.0617536 8.91601275,54.3172718 9.21885728,52.9800197 C9.52170181,51.6427677 9.61574301,51.2079653 9.57111329,50.7199856" id="Fill-2511" fill="#839FC2"></path>
                <path d="M55.2578777,53.9013099 C55.2149549,53.6048236 55.0448532,52.5894379 55.0448532,51.1914894 C55.0448532,48.6091898 55.4677227,48.1421443 56.6934083,48.2282209 C57.7903253,48.3031395 57.9175041,48.9901587 59.2274456,48.9040821 C60.5357974,48.8195994 61,47.5922101 61,46.1528172 C61,44.7134244 60.5357974,43.4844411 59.2274456,43.3999584 C57.9175041,43.3154758 57.7919151,44.1204519 56.6934083,44.0774135 C55.5949015,44.0359692 55.0448532,43.4414027 55.0448532,41.1141451 C55.0448532,39.3272576 55.4216204,38.1524707 55.4263896,37.8527965 C55.4327485,37.4319773 55.1863396,37.4351653 54.9192642,37.3825629 C54.626753,37.3219904 53.4487594,37 51.6666667,37 C49.344064,37 48.7526827,37.5515282 48.7113496,38.6529905 C48.6684267,39.7528588 49.4712428,39.8803798 49.3869869,41.1922517 C49.3027309,42.5057177 48.0770454,42.9711692 46.6415148,42.9711692 C45.2059842,42.9711692 43.9802986,42.5057177 43.8960427,41.1922517 C43.8117867,39.8803798 44.4953727,39.7512648 44.57168,38.6529905 C44.6575257,37.4240072 44.1917334,37 41.6163629,37 C40.2221654,37 39.2063249,37.1530252 38.9138137,37.2120036 C38.6371998,37.267794 38.719866,37.526024 38.743712,37.6838312 C38.8057117,38.0727701 38.9551468,38.9957031 38.9551468,40.3936517 C38.9551468,42.9759512 38.5322773,43.4414027 37.3081815,43.3585141 C36.2112644,43.2820015 36.0840856,42.5949823 34.7741441,42.679465 C33.4642026,42.7639476 33,43.9929309 33,45.4323238 C33,46.8717167 33.4642026,48.1007 34.7741441,48.1851826 C36.0840856,48.2696653 36.2096747,47.4646892 37.3081815,47.5077275 C38.4066882,47.5491718 38.9551468,48.1421443 38.9551468,50.4709959 C38.9551468,52.2578834 38.618123,53.4358583 38.5752001,53.7323446 C38.4909442,53.9857925 38.618123,54.2822787 38.9138137,54.2408344 C39.2095043,54.1993901 40.2221654,54.0288308 41.6163629,54.0288308 C44.1917334,54.0288308 44.6575257,54.452838 44.57168,55.6802273 C44.4953727,56.7800956 43.8117867,56.9076166 43.8960427,58.2210825 C43.9802986,59.5345485 45.2059842,60 46.6415148,60 C48.0770454,60 49.3027309,59.5345485 49.3869869,58.2210825 C49.4712428,56.9076166 48.6684267,56.7816897 48.7113496,55.6802273 C48.7526827,54.580359 49.344064,54.0288308 51.6666667,54.0288308 C53.4487594,54.0288308 54.6235735,54.3683554 54.9192642,54.4097997 C55.2149549,54.452838 55.3421337,54.1563518 55.2578777,53.9013099" id="Fill-2512" fill="#FFFFFF"></path>
                <path d="M32.7446984,15.5114119 C31.3387137,15.0077129 30.246551,15.5491894 29.6235677,16.2150165 C29.075156,16.8005667 28.4381905,16.8824178 27.8447251,16.5676059 C27.2497062,16.252794 26.8426697,15.4626161 26.8411162,14.8928065 C26.8395626,14.322997 26.7960625,8.44231072 26.7960625,8.28490477 C26.7960625,8.09444357 26.7012945,8 26.5459371,8 C26.3890261,8 20.5848726,8.04407367 20.0224787,8.04564773 C19.4600848,8.04722178 18.6801906,8.45962537 18.3694757,9.06249016 C18.0587609,9.66378089 18.1395467,10.3091453 18.7174763,10.8647883 C19.3746383,11.4959861 19.9090678,12.60255 19.4134776,14.0270738 C19.2208344,14.5764206 18.4471544,15.2957658 17.0427233,15.2989139 C15.6367386,15.302062 14.6051653,14.7668818 14.3534862,13.660318 C14.1002536,12.5537541 14.5973974,11.5070046 15.2514522,10.8726586 C15.8278282,10.3154415 15.9039534,9.67007713 15.5916849,9.0687864 C15.2778629,8.46906973 14.4948615,8.05981426 13.9340212,8.06138832 C13.3716273,8.06138832 7.56747386,8.04249961 7.41056286,8.04249961 C7.25520544,8.04407367 7.16043741,8.13851724 7.16199098,8.32897844 C7.16199098,8.48638439 7.14334809,14.3670707 7.14490166,14.9368802 C7.14645524,15.5066898 6.74097235,16.2984417 6.14906056,16.6164017 C5.55714877,16.9343617 4.91862974,16.8556587 4.36866445,16.2732567 C3.74257403,15.6105777 2.71100072,15.1068786 1.61728443,15.3618763 C0.525121728,15.618448 -0.0030935215,16.6636235 1.36270289e-05,18.0865733 C0.00467434982,19.5110971 0.714657788,20.2949788 1.25530163,20.4885881 C2.66128634,20.9922871 3.75344905,20.4508106 4.37643233,19.7849835 C4.92484404,19.1994333 5.56180949,19.1175822 6.15527486,19.4323941 C6.7502938,19.747206 7.15733026,20.5373839 7.15888383,21.1071935 C7.16043741,21.677003 7.20393748,27.5576893 7.20393748,27.7150952 C7.20549106,27.9055564 7.29870551,28 7.45406294,28 C7.61097394,28 13.4151274,27.9559263 13.9775213,27.9543523 C14.5399152,27.9527782 15.3198094,27.5388006 15.6305243,26.9375098 C15.9412391,26.3362191 15.8604533,25.6892807 15.2825237,25.1352117 C14.6253617,24.5040139 14.0909322,23.39745 14.588076,21.9713521 C14.7791656,21.4235794 15.5528456,20.7042342 16.9572767,20.7010861 C18.3632614,20.697938 19.3948347,21.2331182 19.6480673,22.339682 C19.8997464,23.4462459 19.4026026,24.4914214 18.7485478,25.1257674 C18.1737254,25.6829844 18.0960466,26.3299229 18.4098686,26.9312136 C18.7221371,27.5309303 19.5051385,27.9401857 20.0675324,27.9386117 C20.6283727,27.9370376 26.4340797,27.9559263 26.5894371,27.9559263 C26.7463481,27.9559263 26.8395626,27.8614828 26.838009,27.6710216 C26.838009,27.5136156 26.8566519,21.6313553 26.8550983,21.0615457 C26.8550983,20.4933102 27.2590276,19.6999843 27.8509394,19.3820242 C28.4444048,19.0656383 29.0813703,19.1427672 29.6313355,19.7267433 C30.257426,20.3894223 31.2905529,20.8931214 32.3827156,20.6381237 C33.4748783,20.381552 34.0030935,19.3363765 33.9999864,17.9118527 C33.9968792,16.4889029 33.2868958,15.7050212 32.7446984,15.5114119" id="Fill-2513" fill="#FFFFFF"></path>
                <path d="M56.8129845,26.5459371 C56.8129845,26.3890261 56.8316966,20.5848726 56.8301372,20.0224787 C56.8285779,19.4616384 57.2340065,18.678637 57.8296747,18.3663686 C58.4237835,18.050993 59.0646726,18.1302253 59.6166793,18.7050478 C60.2450936,19.3591025 61.2804959,19.8562463 62.3767125,19.6030137 C63.4729291,19.3513346 64.003105,18.3197613 63.9999863,16.9137766 C63.9968676,15.5093455 63.2842489,14.7341119 62.7415983,14.5430223 C61.3288355,14.0474321 60.2341782,14.5803081 59.6088826,15.23747 C59.0584353,15.8153996 58.4191055,15.8961855 57.821878,15.5870242 C57.2262098,15.2763094 56.8161032,14.4964151 56.8161032,13.9340212 C56.8145438,13.3716273 56.7708823,7.56747386 56.7708823,7.41056286 C56.7693229,7.25520544 56.6742031,7.16043741 56.4870822,7.16199098 C56.3295888,7.16199098 50.5054509,7.14334809 49.9409695,7.14490166 C49.3764881,7.14645524 48.5921397,6.74097235 48.2771528,6.14906056 C47.962166,5.55714877 48.040133,4.91862974 48.6170891,4.36866445 C49.2735716,3.74257403 49.7725607,2.70944714 49.5199475,1.61728443 C49.2657749,0.525121728 48.2303726,-0.0030935215 46.8191692,1.36270289e-05 C45.409525,0.00467434982 44.6329733,0.714657788 44.4396151,1.25530163 C43.9421853,2.66128634 44.4785986,3.75344905 45.1381997,4.37643233 C45.7182745,4.92484404 45.7993603,5.56180949 45.4874921,6.15682843 C45.1756239,6.7502938 44.3928348,7.15733026 43.8283535,7.15888383 C43.2638721,7.16043741 37.4381748,7.20393748 37.2822407,7.20393748 C37.0935604,7.20393748 37,7.29870551 37,7.45406294 C37,7.61097394 37.0436615,13.4151274 37.0452209,13.9775213 C37.0467802,14.5399152 37.4568869,15.3198094 38.0525551,15.6305243 C38.6482232,15.9412391 39.2891123,15.8604533 39.8380003,15.2825237 C40.463296,14.6253617 41.5595126,14.0909322 42.970716,14.588076 C43.514926,14.7791656 44.2275447,15.5528456 44.2306634,16.9572767 C44.2337821,18.3632614 43.7036062,19.3948347 42.6073896,19.6480673 C41.511173,19.8997464 40.4757707,19.4026026 39.8473563,18.7485478 C39.2937903,18.1737254 38.6544606,18.0960466 38.0587924,18.4083151 C37.4646836,18.7221371 37.059255,19.5051385 37.0608143,20.0659788 C37.0608143,20.6283727 37.0421022,26.4340797 37.0436615,26.5894371 C37.0436615,26.7463481 37.137222,26.8395626 37.3259022,26.838009 C37.4818363,26.838009 43.3075336,26.8566519 43.872015,26.8550983 C44.4364964,26.8550983 45.2208448,27.2590276 45.5358317,27.8509394 C45.8508185,28.4444048 45.7728515,29.0813703 45.1958954,29.6313355 C44.5394129,30.257426 44.0404238,31.2905529 44.293037,32.3827156 C44.5472096,33.4748783 45.5826119,34.0030935 46.992256,33.9999864 C48.4034594,33.9968792 49.1800112,33.2868958 49.3718101,32.7446984 C49.8692398,31.3387137 49.3343859,30.246551 48.6747847,29.6235677 C48.0947099,29.075156 48.0136242,28.4381905 48.3254924,27.8447251 C48.6373606,27.2497062 49.4201496,26.8426697 49.984631,26.8411162 C50.5491124,26.8395626 56.3748097,26.7960625 56.5307438,26.7960625 C56.719424,26.7960625 56.8129845,26.7012945 56.8129845,26.5459371" id="Fill-2514" fill="#839FC2"></path>
            </g>
        </g>
    </g>
</svg>