<?xml version="1.0" encoding="UTF-8"?>
<svg width="64px" height="48px" viewBox="0 0 64 48" version="1.1" xmlns="http://www.w3.org/2000/svg" xmlns:xlink="http://www.w3.org/1999/xlink">
    <!-- Generator: Sketch 49 (51002) - http://www.bohemiancoding.com/sketch -->
    <title>Group 8</title>
    <desc>Created with Sketch.</desc>
    <defs></defs>
    <g id="Page-1" stroke="none" stroke-width="1" fill="none" fill-rule="evenodd">
        <g id="留学までの流れ" transform="translate(-355.000000, -1958.000000)">
            <g id="Group-8" transform="translate(355.000000, 1958.000000)">
                <polyline id="Fill-2509" fill="#839FC2" points="0 48 0 17.7541718 31 0 31 48 0 48"></polyline>
                <path d="M57.4936962,29.6256087 L53.3308737,28.8230634 L53.306636,23.1491462 L57.4936962,24.5438608 L57.4936962,29.6256087 Z M57.4936962,36.5945069 L53.3642005,36.5945069 L53.3399629,31.009415 L57.4936962,31.5844426 L57.4936962,36.5945069 Z M45.8096169,36.5945069 L45.7293296,29.9528602 L51.4872948,30.7522888 L51.5236513,36.5945069 L45.8096169,36.5945069 Z M45.6172303,20.5856763 L51.4373045,22.52581 L51.4736611,28.4646452 L45.6990324,27.3519901 L45.6172303,20.5856763 Z M33,0 L33,48 L64,48 L64,17.7541718 L33,0 Z" id="Fill-2510" fill="#FFFFFF"></path>
            </g>
        </g>
    </g>
</svg>