<?xml version="1.0" encoding="UTF-8"?>
<svg width="91px" height="69px" viewBox="0 0 91 69" version="1.1" xmlns="http://www.w3.org/2000/svg" xmlns:xlink="http://www.w3.org/1999/xlink">
    <!-- Generator: Sketch 49 (51002) - http://www.bohemiancoding.com/sketch -->
    <title>Group 10</title>
    <desc>Created with Sketch.</desc>
    <defs></defs>
    <g id="Page-1" stroke="none" stroke-width="1" fill="none" fill-rule="evenodd">
        <g id="留学までの流れ" transform="translate(-1084.000000, -2128.000000)" fill="#2D315D" stroke="#FFFFFF">
            <g id="Group-10" transform="translate(1084.000000, 2129.000000)">
                <path d="M47.4373892,11.6623201 C46.9826891,11.522594 45.5293153,11.0799325 43.6486186,11.6916743 C40.8287639,12.6110482 40.1824232,14.8654515 40.8525702,16.8650604 C41.3727375,18.4161369 42.9141946,20.3875657 46.2339813,19.3061565 C47.2028972,18.9891311 47.6540264,18.633358 47.989695,18.3644735 L47.2505098,16.1617335 L44.6211054,17.0188764 L43.9009652,14.8736707 L48.9693237,13.2216157 L51,19.2779765 C49.9406202,20.2020471 48.6324648,21.0169199 46.9874503,21.5535149 C42.5642422,22.9953937 39.3991964,20.7480354 38.3552907,17.6317924 C37.144741,14.0223986 39.1194725,10.6783669 42.8820561,9.45136093 C44.4389873,8.94177183 45.9161674,8.87836673 47.5361852,9.18717303 L47.4373892,11.6623201" id="Fill-3056"></path>
                <path d="M58.7859348,15.3687718 C61.0306897,14.6286634 61.7897162,12.2724727 61.1360436,10.3036173 C60.4799765,8.33237839 58.4614929,6.89149091 56.2155408,7.62921577 C53.9695887,8.36932423 53.2105622,10.7255149 53.865432,12.6967539 C54.5203019,14.666801 56.5387855,16.1064967 58.7859348,15.3687718 Z M55.4589087,5.35049215 C58.8422033,4.23734996 62.4158532,5.81886996 63.6334082,9.48008281 C64.8533577,13.1579809 62.911495,16.5403123 59.5425669,17.6474955 C56.1880051,18.7534868 52.5987917,17.2244061 51.3680674,13.5179048 C50.1409347,9.82689692 52.1031498,6.45529173 55.4589087,5.35049215 Z" id="Fill-3057"></path>
                <path d="M66.9717556,11.5552421 L69.2667528,10.7166902 L70,13.161448 L67.7027875,14 L66.9717556,11.5552421 Z M66.4467417,1 L68.7284475,9.6764457 L66.8543474,10.3597555 L64,1.893559 L66.4467417,1 Z" id="Fill-3058"></path>
                <path d="M73.970648,10.5572275 L76.2678604,9.71851782 L77,12.1612903 L74.7038951,13 L73.970648,10.5572275 Z M73.4467417,0 L75.7273399,8.67563246 L73.8543474,9.35907082 L71,0.892504467 L73.4467417,0 Z" id="Fill-3059"></path>
                <path d="M89.9162248,23.2916734 C90.25284,24.0161815 89.4851635,25.0846479 89.2006147,25.4408034 C88.9184875,25.7993983 86.9278564,28.2339405 86.4980061,28.8803871 C86.0729991,29.5256139 80.3105822,34.6130265 74.0492967,38.1953163 C67.7904329,41.7788258 66.5795868,43.0680598 66.5795868,43.0680598 L66.4403395,43.7852496 L67.1486845,44.3585136 L67.3642151,49.5178891 C67.3642151,49.5178891 69.922733,48.3701415 70.4954633,48.2274354 C71.0621393,48.0835095 71.9145749,48.5140673 72.3444253,49.2288177 C72.7706432,49.9472272 72.6277633,50.879086 72.2027563,51.3803871 C71.7753276,51.8829078 69.5703768,53.9600748 69.5703768,53.9600748 L74.3374781,63.0591153 L74.6196053,63.5604163 L73.9778568,63.5604163 C73.9778568,63.5604163 72.2729854,65.2814279 71.1323683,65.424134 C70.8490303,65.7827289 70.5669032,65.8534721 70.5669032,65.8534721 L70.2823543,65.0643194 L66.0843507,61.6271752 C65.5866929,61.8418442 64.6616065,60.9112051 64.6616065,60.9112051 L62.7399936,61.9845503 L63.73652,60.1940153 L61.4601292,58.2595544 C61.4601292,58.2595544 55.0571748,60.9807286 54.701186,60.9807286 C54.3464081,60.9807286 54.1320883,60.409904 54.1320883,60.409904 L52.9963146,60.5513905 L53.5642014,59.6914946 C53.5642014,59.6914946 53.8487503,58.6888925 54.0618592,58.6169296 C54.2749681,58.5461864 57.4764454,55.2493088 57.4764454,55.2493088 L56.5513589,54.532119 L55.8393814,54.532119 L51.5045521,53.0989592 L48.5864129,53.529517 C48.5864129,53.529517 44.5288674,54.9638966 43.5311302,55.5347211 C42.5382363,56.107985 33.7910837,59.9073833 26.5332718,61.1246544 C26.4630428,61.6271752 27.5285874,64.7801268 27.5285874,65.2814279 C27.5285874,65.7827289 27.1725986,65.6375833 26.8880498,65.8534721 C26.6010792,66.0705806 24.5414299,67 24.328321,67 C24.1152121,67 23.4032345,66.4267361 23.4032345,66.4267361 L18.2825661,62.6297772 C18.2825661,62.6297772 16.2907242,63.0591153 15.5787467,62.7017401 C14.86798,62.3431452 14.7251001,60.5513905 14.7251001,60.5513905 L0,54.3894129 C0,54.3894129 2.70260862,52.454952 3.05980824,52.5256952 C3.41579701,52.5988779 15.5787467,54.2467068 15.5787467,54.2467068 C15.5787467,54.2467068 11.7379426,44.0718816 11.7379426,43.712067 C11.7379426,43.3559115 11.5248337,43.2827289 12.2356004,42.924134 C12.9451563,42.5655391 14.7251001,41.3470483 14.9369982,41.4202309 C15.1525288,41.4909741 24.5414299,47.8688405 25.1831784,48.2981786 C25.8200834,48.7287364 28.1679141,49.5178891 28.4560955,49.3727435 C28.735801,49.2288177 31.1587042,47.7968775 31.1587042,47.7968775 L31.1587042,47.0077248 C30.7288538,46.7942755 34.0732109,44.5012197 34.0732109,44.5012197 L35.000719,42.924134 C35.000719,42.924134 34.4982179,42.2789071 34.2160907,42.3533095 C33.9315419,42.422833 33.5755531,42.5655391 33.5755531,42.5655391 L32.0111398,41.8483493 C32.0111398,41.8483493 29.6608875,42.8533908 29.5204293,42.7814279 C29.3787603,42.709465 30.3026359,41.2775248 30.3026359,41.2775248 L23.9735431,38.6258741 C23.9735431,38.6258741 21.9078395,40.0578143 21.7661705,39.9882908 C21.6232907,39.9151081 22.4805697,37.981867 22.4805697,37.981867 L18.7802239,36.6194503 L18.7075731,36.1181493 L7.96736771,31.7467068 L7.46970994,31.7467068 C7.46970994,31.7467068 10.955736,30.0988779 11.8069609,30.0988779 C12.6630291,30.0988779 44.1014387,37.6220524 44.1014387,37.6220524 C44.1014387,37.6220524 47.7291338,35.9034802 48.6542203,35.9034802 C49.5817284,35.9034802 50.2210552,36.9768255 50.2210552,36.9768255 C50.2210552,36.9768255 64.6616065,29.3097252 65.656922,28.6669377 C66.6546592,28.0204911 76.8972069,22 81.2356687,22 C85.2956358,22 85.2895816,22.5744837 86.569446,22.5049602 C87.6349906,22.4427549 89.3447054,22.0731826 89.9162248,23.2916734" id="Fill-3150"></path>
            </g>
        </g>
    </g>
</svg>