<?xml version="1.0" encoding="UTF-8"?>
<svg width="218px" height="205px" viewBox="0 0 218 205" version="1.1" xmlns="http://www.w3.org/2000/svg" xmlns:xlink="http://www.w3.org/1999/xlink">
    <!-- Generator: Sketch 49 (51002) - http://www.bohemiancoding.com/sketch -->
    <title>Group 5</title>
    <desc>Created with Sketch.</desc>
    <defs>
        <path d="M192.506604,95.0451158 C192.506604,146.886821 149.818521,188.914453 97.157625,188.914453 C44.49875,188.914453 1.80864583,146.886821 1.80864583,95.0451158 C1.80864583,43.2014211 44.49875,1.17378947 97.157625,1.17378947 C149.818521,1.17378947 192.506604,43.2014211 192.506604,95.0451158 Z" id="path-1"></path>
    </defs>
    <g id="Page-1" stroke="none" stroke-width="1" fill="none" fill-rule="evenodd">
        <g id="Point" transform="translate(-1043.000000, -3393.000000)">
            <g id="Group-5" transform="translate(1043.000000, 3393.000000)"><!--
                <polyline id="Fill-3240" stroke="#FFFFFF" fill="#343465" points="45.963964 80.004 15.8046847 95.126 0.54645045 65.236 30.7037117 50.114 45.963964 80.004"></polyline>-->
                <path d="M217.769946,102.548 C217.769946,158.668 171.86609,204.164 115.238486,204.164 C58.6129009,204.164 12.707027,158.668 12.707027,102.548 C12.707027,46.426 58.6129009,0.93 115.238486,0.93 C171.86609,0.93 217.769946,46.426 217.769946,102.548" id="Fill-3241" fill="#343465"></path>
                <g id="Group-3254" transform="translate(18.000000, 7.000000)">
                    <mask id="mask-2" fill="white">
                        <use xlink:href="#path-1"></use>
                    </mask>
                    <g id="Clip-3244"></g>
                    <polygon id="Fill-3243" fill="#FFFFFF" mask="url(#mask-2)" points="1.80864583 188.914453 192.506604 188.914453 192.506604 1.17378947 1.80864583 1.17378947"></polygon>
                    <polygon id="Fill-3245" fill="#D8D9D9" mask="url(#mask-2)" points="1.80864583 117.661453 63.6623125 117.661453 63.6623125 44.2160526 1.80864583 44.2160526"></polygon>
                    <polygon id="Fill-3246" fill="#D8D9D9" mask="url(#mask-2)" points="78.0708542 117.661453 151.087604 117.661453 151.087604 44.2160526 78.0708542 44.2160526"></polygon>
                    <polygon id="Fill-3247" fill="#343465" mask="url(#mask-2)" points="165.496146 117.661453 192.506604 117.661453 192.506604 44.2160526 165.496146 44.2160526"></polygon>
                    <polygon id="Fill-3248" fill="#D8D9D9" mask="url(#mask-2)" points="1.80864583 28.8175263 63.6623125 28.8175263 63.6623125 1.17378947 1.80864583 1.17378947"></polygon>
                    <polygon id="Fill-3249" fill="#D8D9D9" mask="url(#mask-2)" points="78.0708542 28.8175263 151.087604 28.8175263 151.087604 1.17378947 78.0708542 1.17378947"></polygon>
                    <polygon id="Fill-3250" fill="#343465" mask="url(#mask-2)" points="165.496146 28.8175263 192.506604 28.8175263 192.506604 1.17378947 165.496146 1.17378947"></polygon>
                    <polygon id="Fill-3251" fill="#D8D9D9" mask="url(#mask-2)" points="1.80864583 188.914453 63.6623125 188.914453 63.6623125 134.172095 1.80864583 134.172095"></polygon>
                    <polygon id="Fill-3252" fill="#D8D9D9" mask="url(#mask-2)" points="78.0708542 188.914453 151.087604 188.914453 151.087604 134.172095 78.0708542 134.172095"></polygon>
                    <polygon id="Fill-3253" fill="#343465" mask="url(#mask-2)" points="165.496146 188.914453 192.506604 188.914453 192.506604 134.172095 165.496146 134.172095"></polygon>
                </g>
                <polyline id="Fill-3263" fill="#231F20" points="32 95 26 95 26 84 31.74613 84 31.74613 85.0117925 27.2383901 85.0117925 27.2383901 88.7356676 31.4778122 88.7356676 31.4778122 89.7314949 27.2383901 89.7314949 27.2383901 93.9902032 32 93.9902032 32 95"></polyline>
                <path d="M40,93 L38.8686361,93 L38.8686361,88.3835481 C38.8686361,87.1070367 38.433061,85.9890981 37.1357637,85.9890981 C36.1665619,85.9890981 35.1860465,86.8493558 35.1860465,88.2111001 L35.1860465,93 L34.052797,93 L34.052797,87.1922696 C34.052797,86.3914767 34.0263985,85.802775 34,85.172448 L35.0087995,85.172448 L35.0766813,86.4469772 L35.1049654,86.4469772 C35.4726587,85.6878097 36.3306097,85 37.4921433,85 C38.4179761,85 40,85.5887017 40,88.2388503 L40,93" id="Fill-3264" fill="#231F20"></path>
                <path d="M47.7071982,88.0803836 C47.7071982,86.7626853 46.7054775,85.9302528 45.6013765,85.9302528 C44.2082019,85.9302528 43.2365931,87.1079337 43.2365931,88.9396687 C43.2365931,90.5489102 44.0496128,91.8109852 45.5873243,91.8109852 C46.4886722,91.8109852 47.7071982,91.1607672 47.7071982,89.5918047 L47.7071982,88.0803836 Z M49,85.1668701 C48.955836,85.7077594 48.9277316,86.3176983 48.9277316,87.2479512 L48.9277316,91.6575414 C48.9277316,92.9771578 48.8976197,96 45.1537138,96 C44.2503585,96 43.2646974,95.7928509 42.6684829,95.4054054 L42.9896759,94.5039233 C43.4975624,94.7935484 44.2664181,95.0716652 45.2099226,95.0716652 C46.6633209,95.0716652 47.7232578,94.3370532 47.7232578,92.3384481 L47.7232578,91.436966 L47.693146,91.436966 C47.2856323,92.1447254 46.4445082,92.7278117 45.2400344,92.7278117 C43.3510181,92.7278117 42,91.1319965 42,89.0087184 C42,86.386748 43.7143677,85 45.4267278,85 C46.7777459,85 47.4903929,85.694333 47.8236306,86.304272 L47.851735,86.304272 L47.9119587,85.1668701 L49,85.1668701 Z" id="Fill-3265" fill="#231F20"></path>
                <polygon id="Fill-3266" fill="#231F20" points="51 94 52.20208 94 52.20208 82 51 82"></polygon>
                <path d="M55.39,95 L54.1882,95 L54.1882,87.0480469 L55.39,87.0480469 L55.39,95 Z M54.782,85.6480836 C54.318,85.6480836 54,85.2809463 54,84.8149642 C54,84.3631029 54.332,84 54.796,84 C55.274,84 55.576,84.3631029 55.576,84.8149642 C55.576,85.3273427 55.244,85.6480836 54.782,85.6480836 Z" id="Fill-3267" fill="#231F20"></path>
                <path d="M62.3765432,86.3492102 C62.0781893,86.1664642 61.5288066,85.9001215 60.7983539,85.9001215 C59.9053498,85.9001215 59.4279835,86.4191981 59.4279835,87.0374241 C59.4279835,87.6984204 59.8909465,88.0094775 60.9320988,88.4294046 C62.2407407,88.9368165 63,89.5842041 63,90.7370595 C63,92.0998785 61.899177,93 60.1296296,93 C59.3251029,93 58.5514403,92.7900365 58,92.4789793 L58.3436214,91.5788578 C58.7757202,91.8199271 59.4753086,92.0998785 60.1728395,92.0998785 C61.2592593,92.0998785 61.7942387,91.5535844 61.7942387,90.8634265 C61.7942387,90.146051 61.3641975,89.7533414 60.2921811,89.345079 C58.9238683,88.8240583 58.2242798,88.1066829 58.2242798,87.1793439 C58.2242798,85.9856622 59.2345679,85 60.872428,85 C61.6460905,85 62.3024691,85.2099635 62.7345679,85.4646416 L62.3765432,86.3492102" id="Fill-3268" fill="#231F20"></path>
                <path d="M72,94 L70.8585923,94 L70.8585923,89.16972 C70.8585923,87.8340823 70.4191503,86.680954 69.1255549,86.680954 C68.2447685,86.680954 67.1433101,87.4732112 67.1433101,88.9747667 L67.1433101,94 L66,94 L66,82 L67.1433101,82 L67.1433101,87.0853785 L67.1718453,87.0853785 C67.6645529,86.1832008 68.5738744,85.6294504 69.49461,85.6294504 C70.4191503,85.6294504 72,86.24542 72,89.0183201 L72,94" id="Fill-3269" fill="#231F20"></path>
                <path d="M116,76.2155978 L115.863827,76.399291 C115.666899,80.4270061 115.243715,82.9581051 114.652933,83.9500483 C114.047486,84.914921 113.167598,84.9574605 112.666899,84.9574605 C112.076117,84.9574605 111.001397,84.8317757 109.956006,84.6364808 C109.985335,84.356107 109.956006,83.9365131 109.909916,83.6426039 C111.045391,83.8804383 112.212291,83.9925878 112.562151,83.9925878 C113.104749,83.9925878 113.410615,83.866903 113.726955,83.3351595 C114.181564,82.4805027 114.560754,80.133097 114.713687,76.9871092 L109.865922,76.9871092 C109.105447,80.3283919 107.605447,83.0973252 104.863128,85 C104.682961,84.8163068 104.287011,84.5514019 104,84.3851112 C106.622905,82.5655817 108.001397,80.1737029 108.728352,76.9871092 L104.546788,76.9871092 L104.546788,76.0493071 L108.939944,76.0493071 C109.122207,75.0573638 109.212291,74.1621012 109.287709,73 L110.787709,73.1121495 C110.773045,73.2668385 110.636872,73.3499839 110.40852,73.3654528 C110.318436,74.3844666 110.243017,75.1540445 110.075419,76.0493071 L114.986034,76.0493071 L115.226955,75.9642282 L116,76.2155978" id="Fill-3255" fill="#231F20"></path>
                <path d="M124.733283,71 L126.23555,71.0898665 C126.221005,71.2369207 126.040234,71.3717203 125.815829,71.3860173 L125.815829,73.7041634 L129.842652,73.7041634 L130.069135,73.6142969 L131,74.0289081 L130.835852,74.1923016 C130.143937,79.3616654 127.964299,82.3619796 123.199849,84 C123.050246,83.7487824 122.734416,83.3648075 122.493389,83.1156324 C126.956555,81.6083268 129.015678,78.8612726 129.526823,74.7090338 L121.036834,74.7090338 L121.036834,78.3731343 L120,78.3731343 L120,73.7041634 L124.733283,73.7041634 L124.733283,71" id="Fill-3257" fill="#231F20"></path>
                <path d="M134.418845,82.887574 C139.717331,81.3175542 143.237276,78.4792899 145.028198,74.5285996 C145.341816,74.7712032 145.684319,74.9546351 146,75.1143984 C144.134801,79.0216963 140.493122,82.0591716 135.433975,83.6706114 L135.223521,84 L134.418845,82.887574 Z M134.47868,73 C136.030261,73.4714004 137.821183,74.2130178 138.925034,74.9428008 L138.359697,75.8402367 C137.282669,75.1143984 135.522696,74.357002 134,73.8579882 L134.47868,73 Z" id="Fill-3258" fill="#231F20"></path>
                <path d="M116,90.9724208 L115.768393,91.1481103 C115.125041,92.7456588 113.994721,94.7538304 112.777301,95.9652707 C112.561531,95.8038815 112.189376,95.5812053 111.918179,95.4341164 C113.006928,94.4290092 113.893764,92.9519918 114.366876,91.7691522 L108.883537,93.2482125 L108.883537,97.0745659 C108.883537,98.5229826 109.728802,99.0091931 110.872979,99.0091931 L113.206862,99.0091931 C113.792808,99.0091931 114.7806,98.9213483 115.340812,98.8478039 C115.340812,99.1726251 115.354668,99.5730337 115.368525,99.8815117 C114.794457,99.9550562 113.792808,100 113.250412,100 L110.859122,100 C109.053778,100 107.850214,99.1276813 107.850214,97.0888662 L107.850214,93.5137896 L104.243484,94.4719101 L104,93.4831461 L107.850214,92.494382 L107.850214,88 L109.241834,88.061287 C109.212141,88.2390194 109.083471,88.3268641 108.883537,88.3554648 L108.883537,92.2124617 L114.938964,90.6026558 L115.097328,90.4841675 L116,90.9724208" id="Fill-3259" fill="#231F20"></path>
                <path d="M129,88.0854784 C128.984119,88.2272948 128.882878,88.2972317 128.654591,88.3244293 L128.654591,92.7926178 C128.654591,95.7435648 127.620347,98.4400194 123.499256,100 C123.356328,99.7901894 122.997022,99.4249636 122.752854,99.240408 C126.731017,97.7950461 127.620347,95.3919378 127.620347,92.7926178 L127.620347,88 L129,88.0854784 Z M121,95.4618747 L121,88.6333171 L122.365757,88.7168528 C122.351861,88.8450704 122.25062,88.9441476 122.020347,88.9694026 L122.020347,95.4618747 L121,95.4618747 Z" id="Fill-3260" fill="#231F20"></path>
                <path d="M134.418845,97.887574 C139.717331,96.3175542 143.237276,93.4773176 145.028198,89.5266272 C145.341816,89.7692308 145.684319,89.9546351 146,90.112426 C144.134801,94.0216963 140.493122,97.0591716 135.433975,98.6706114 L135.223521,99 L134.418845,97.887574 Z M134.47868,88 C136.030261,88.4714004 137.821183,89.2130178 138.925034,89.9408284 L138.359697,90.8402367 C137.282669,90.112426 135.522696,89.357002 134,88.8579882 L134.47868,88 Z" id="Fill-3261" fill="#231F20"></path>
                <path d="M159.076779,87 C159.766542,87.5664859 160.57397,88.4572643 161,89.1099546 L160.458333,89.5697112 C160.016074,88.9006011 159.253277,88.0406099 158.563514,87.4761765 L159.076779,87 Z M156.948658,87.4330743 C157.640449,87.9954552 158.445849,88.9006011 158.871879,89.5409764 L158.330212,90.0151004 C157.887953,89.3316229 157.096754,88.4572643 156.435393,87.9071984 L156.948658,87.4330743 Z M158.770443,90.8463568 L158.549313,91.0680252 C156.995318,95.9837267 154.587235,98.95162 150.610955,101 C150.450687,100.747544 150.154494,100.406832 149.86236,100.183111 C153.633739,98.3276646 155.995162,95.4788154 157.24485,91.4415775 L152.063514,91.4415775 C151.213483,92.7756927 150.128121,94.0215511 148.8196,95.062161 C148.63093,94.85486 148.277934,94.5716171 148,94.3930509 C149.994226,92.8803694 151.653714,90.5343791 152.649813,87.892831 L154.031367,88.2786981 C153.984707,88.4264771 153.810237,88.4859991 153.619538,88.4695792 C153.325375,89.1386893 152.988608,89.8509016 152.649813,90.4440698 L157.758115,90.4440698 L157.932584,90.3558129 L158.770443,90.8463568 Z" id="Fill-3262" fill="#231F20"></path>
                <path d="M117.775559,167.07062 L112.256268,167.07062 C113.171596,170.419398 114.994445,172.995381 118,174.103248 C117.759946,174.312426 117.449632,174.703665 117.295451,174.984505 C114.344543,173.779797 112.550968,171.300656 111.506831,167.924762 C110.85888,170.698302 109.319021,173.442789 105.679177,175 C105.534755,174.746275 105.240054,174.409267 105,174.200089 C108.725717,172.700983 110.125056,169.900328 110.659811,167.07062 L105.210779,167.07062 L105.210779,166.104142 L110.813992,166.104142 C110.999399,164.645709 110.983786,163.218266 110.999399,162 L112.326528,162.069726 C112.312866,162.19562 112.197718,162.265346 112.016214,162.306019 C112.002552,163.413886 111.986939,164.73093 111.817145,166.104142 L117.775559,166.104142 L117.775559,167.07062" id="Fill-3270" fill="#231F20"></path>
                <path d="M132.362725,166.66562 L129.478958,166.66562 L129.478958,168.239611 C129.478958,168.478625 129.478958,168.704036 129.46493,168.943049 L132.362725,168.943049 L132.362725,166.66562 Z M125.739479,168.943049 L128.507014,168.943049 C128.523046,168.704036 128.523046,168.478625 128.523046,168.239611 L128.523046,166.66562 L125.739479,166.66562 L125.739479,168.943049 Z M133.306613,169.75725 L129.40481,169.75725 C129.306613,170.686099 129.072144,171.5858 128.537074,172.401943 C129.927856,173.299701 131.783567,173.847683 134,174.086697 C133.783567,174.296562 133.523046,174.691031 133.378758,174.972795 C131.188377,174.675486 129.362725,174.073094 127.957916,173.11704 C127.204409,173.874888 126.086172,174.521973 124.43487,175 C124.332665,174.790135 124.044088,174.411211 123.839679,174.213004 C125.448898,173.804933 126.507014,173.229746 127.204409,172.541854 C126.507014,171.951121 125.941884,171.234081 125.521042,170.404335 L126.40481,170.124514 C126.739479,170.769656 127.204409,171.344843 127.783567,171.836472 C128.188377,171.19133 128.378758,170.487892 128.450902,169.75725 L124.839679,169.75725 L124.839679,165.865022 L128.523046,165.865022 L128.523046,164.388191 L124.376754,164.388191 L124.376754,163.517638 L128.523046,163.517638 L128.523046,162.013602 L129.767535,162.083558 C129.753507,162.182661 129.681363,162.252616 129.478958,162.279821 L129.478958,163.517638 L133.813627,163.517638 L133.813627,164.388191 L129.478958,164.388191 L129.478958,165.865022 L133.306613,165.865022 L133.306613,169.75725 Z M122.274549,166.863827 C121.723447,167.747982 121.116232,168.534978 120.507014,169.209268 C120.40481,168.9858 120.158317,168.54858 120,168.325112 C121.390782,166.863827 122.783567,164.430942 123.623246,162 L124.783567,162.378924 L124.448898,162.507175 C124.072144,163.48849 123.623246,164.471749 123.116232,165.416143 L123.507014,165.513303 C123.476954,165.596861 123.40481,165.668759 123.218437,165.680419 L123.218437,175 L122.274549,175 L122.274549,166.863827 Z" id="Fill-3271" fill="#231F20"></path>
                <path d="M145.611689,171.360619 L141.762012,171.360619 L141.762012,173.504391 L145.611689,173.504391 L145.611689,171.360619 Z M145.059497,166.602917 L141.762012,166.602917 L141.762012,168.533898 L145.059497,168.533898 L145.059497,166.602917 Z M141.762012,169.332936 L141.762012,170.549933 L146.504594,170.549933 L146.504594,174.916803 L145.611689,174.916803 L145.611689,174.32862 L141.762012,174.32862 L141.762012,175 L140.882814,175 L140.882814,165.805775 L145.952402,165.805775 L145.952402,169.332936 L141.762012,169.332936 Z M135.995331,169.598006 L138.560476,169.598006 L138.560476,168.394533 L135.995331,168.394533 L135.995331,169.598006 Z M138.560476,166.51972 L135.995331,166.51972 L135.995331,167.667102 L138.560476,167.667102 L138.560476,166.51972 Z M143.886579,163.652329 L147,163.652329 L147,165.875428 L146.122759,165.875428 L146.122759,164.449472 L140.826028,164.449472 L140.826028,165.875428 L139.976201,165.875428 L139.976201,164.658431 L139.353517,165.205983 C138.928604,164.6178 138.078777,163.762613 137.272029,163.064146 C136.776623,163.917398 136.095195,164.882869 135.259075,165.776752 L136.888236,165.776752 L136.888236,164.393362 L137.978912,164.463015 C137.965206,164.561691 137.894713,164.6178 137.710649,164.644888 L137.710649,165.776752 L139.437717,165.776752 L139.437717,170.340973 L135.995331,170.340973 L135.995331,172.999405 C136.663052,172.860098 137.383642,172.69177 138.092484,172.523441 C137.767435,172.061021 137.399307,171.627623 137.044886,171.236791 L137.767435,170.844024 C138.701461,171.81143 139.678566,173.125167 140.060401,174.020985 L139.296731,174.469862 C139.142039,174.104182 138.885525,173.672719 138.58789,173.208364 C137.115379,173.601131 135.599789,173.993898 134.636391,174.23188 L134.467992,174.440839 L134.041121,173.419259 C134.352463,173.363149 134.722549,173.278018 135.11809,173.194821 L135.11809,165.933472 L134.67947,166.364935 C134.509113,166.155976 134.211478,165.890906 134,165.776752 C135.304112,164.631344 136.281217,163.1338 136.831451,162 L137.965206,162.168329 L137.694984,162.350201 C138.517397,163.021581 139.480795,163.917398 139.976201,164.561691 L139.976201,163.652329 L142.964302,163.652329 L142.964302,162.013544 L144.168549,162.098675 C144.152884,162.195416 144.068685,162.265069 143.886579,162.280548 L143.886579,163.652329 Z" id="Fill-3272" fill="#231F20"></path>
                <path d="M113.772439,189.364075 L116.343118,189.364075 L116.343118,182.646548 L113.772439,182.646548 L113.772439,189.364075 Z M112.872702,187.589087 L109.996756,187.589087 L109.996756,189.364037 L112.872702,189.364037 L112.872702,187.589087 Z M109.996756,186.808788 L112.872702,186.808788 L112.872702,185.103332 L109.996756,185.103332 L109.996756,186.808788 Z M109.996756,184.321101 L112.872702,184.321101 L112.872702,182.646548 L109.996756,182.646548 L109.996756,184.321101 Z M109.09501,182.646548 L106.684999,182.646548 L106.684999,189.364075 L109.09501,189.364075 L109.09501,182.646548 Z M118,179.894254 L111.970956,179.894254 L111.840414,179.905843 C111.71188,180.436987 111.507029,181.149686 111.302178,181.763882 L117.331222,181.763882 L117.331222,191 L116.343118,191 L116.343118,190.244809 L106.684999,190.244809 L106.684999,191 L105.725012,191 L105.725012,181.763882 L110.316082,181.763882 C110.474741,181.205698 110.649467,180.492999 110.782018,179.894254 L105,179.894254 L105,179 L118,179 L118,179.894254 Z" id="Fill-3273" fill="#231F20"></path>
                <path d="M132.26294,180.921847 L131.950311,181.087626 C131.708075,181.792185 131.335404,182.857312 130.975155,183.545293 L130.138716,183.31942 C130.467909,182.58585 130.84058,181.431616 131.035197,180.652457 L132.26294,180.921847 Z M127.84472,186.918887 C127.592133,187.455595 127.320911,187.996448 127.066253,188.489639 C127.830228,188.717584 128.654244,188.986975 129.461698,189.285376 C130.165631,188.669923 130.645963,187.890764 130.960663,186.918887 L127.84472,186.918887 Z M127.47205,180.758141 C127.770186,181.568384 128.024845,182.602427 128.072464,183.230314 L127.128364,183.456187 C127.082816,182.811723 126.859213,181.761101 126.573499,180.952931 L127.47205,180.758141 Z M133.3706,179.693014 L133.3706,180.577857 L125.196687,180.577857 L125.196687,179.693014 L128.670807,179.693014 L128.670807,178 L129.973085,178.0746 C129.958592,178.180284 129.884058,178.254885 129.687371,178.285968 L129.687371,179.693014 L133.3706,179.693014 Z M134,184.444642 L129.254658,184.444642 L128.939959,184.579337 C128.745342,185.014506 128.519669,185.524275 128.26501,186.034044 L133.850932,186.034044 L133.850932,186.918887 L131.993789,186.918887 C131.679089,188.042037 131.171843,188.941385 130.42029,189.66045 C131.604555,190.155713 132.666667,190.694494 133.401656,191.204263 L132.741201,192 C131.993789,191.459147 130.871636,190.860272 129.612836,190.31942 C128.445135,191.098579 126.84265,191.608348 124.670807,191.908822 C124.581781,191.639432 124.401656,191.278863 124.238095,191.069568 C126.093168,190.860272 127.517598,190.485198 128.57971,189.900829 C127.935818,189.645944 127.291925,189.436649 126.679089,189.241859 L126.467909,189.629366 L125.583851,189.330965 C125.944099,188.686501 126.378882,187.816163 126.797101,186.918887 L124.641822,186.918887 L124.641822,186.034044 L127.202899,186.034044 C127.457557,185.478686 127.695652,184.939905 127.904762,184.444642 L124.490683,184.444642 L124.490683,183.561871 L134,183.561871 L134,184.444642 Z M125.10559,185.642392 L123.233954,186.214328 L123.233954,190.679988 C123.233954,191.863233 122.650104,191.937833 120.643892,191.937833 C120.612836,191.670515 120.480331,191.249852 120.329193,190.965956 C120.658385,190.980462 120.958592,190.980462 121.227743,190.980462 C122.275362,190.980462 122.275362,190.965956 122.275362,190.66341 L122.275362,186.498224 C121.614907,186.693014 121.033126,186.85672 120.554865,186.993487 L120.358178,187.231794 L120,186.065127 C120.6294,185.913854 121.42236,185.719065 122.275362,185.493191 L122.275362,182.078153 L120.149068,182.078153 L120.149068,181.133215 L122.275362,181.133215 L122.275362,178 L123.532091,178.0746 C123.517598,178.19479 123.443064,178.254885 123.233954,178.285968 L123.233954,181.133215 L125.060041,181.133215 L125.060041,182.078153 L123.233954,182.078153 L123.233954,185.238307 C123.817805,185.089106 124.401656,184.9254 125,184.759621 L125.10559,185.642392 Z" id="Fill-3274" fill="#231F20"></path>
            </g>
        </g>
    </g>
</svg>