<?xml version="1.0" encoding="UTF-8"?>
<svg width="63px" height="186px" viewBox="0 0 63 186" version="1.1" xmlns="http://www.w3.org/2000/svg" xmlns:xlink="http://www.w3.org/1999/xlink">
    <!-- Generator: Sketch 49 (51002) - http://www.bohemiancoding.com/sketch -->
    <title>Group 4</title>
    <desc>Created with Sketch.</desc>
    <defs></defs>
    <g id="Page-1" stroke="none" stroke-width="1" fill="none" fill-rule="evenodd">
        <g id="Point" transform="translate(-687.000000, -2623.000000)" fill="#2D315D">
            <g id="Group-4" transform="translate(687.000000, 2623.000000)">
                <g id="Group-3">
                    <path d="M61.202625,50.4653981 C62.7727969,50.4653981 63.3815156,49.3849061 62.5530938,48.0651909 L33.3406406,1.46847896 C32.5122188,0.148763754 31.1577188,0.148763754 30.3292969,1.46847896 L1.11684375,48.0651909 C0.288421875,49.3849061 0.897140625,50.4653981 2.46932813,50.4653981 L61.202625,50.4653981" id="Fill-3714"></path>
                    <path d="M61.202625,135.295974 C62.7727969,135.295974 63.3815156,136.376466 62.5530938,137.698175 L33.3406406,184.292893 C32.5122188,185.614602 31.1577188,185.614602 30.3292969,184.292893 L1.11684375,137.698175 C0.288421875,136.376466 0.897140625,135.295974 2.46932813,135.295974 L61.202625,135.295974" id="Fill-3715"></path>
                    <path d="M46.0753594,142.064 C46.0753594,143.618951 44.7914063,144.890822 43.2192188,144.890822 L20.4507188,144.890822 C18.8805469,144.890822 17.5945781,143.618951 17.5945781,142.064 L17.5945781,45.2303948 C17.5945781,43.6754434 18.8805469,42.4055663 20.4507188,42.4055663 L43.2192188,42.4055663 C44.7914063,42.4055663 46.0753594,43.6754434 46.0753594,45.2303948 L46.0753594,142.064" id="Fill-3716"></path>
                </g>
            </g>
        </g>
    </g>
</svg>