<?xml version="1.0" encoding="UTF-8"?>
<svg width="158px" height="83px" viewBox="0 0 158 83" version="1.1" xmlns="http://www.w3.org/2000/svg" xmlns:xlink="http://www.w3.org/1999/xlink">
    <!-- Generator: Sketch 49 (51002) - http://www.bohemiancoding.com/sketch -->
    <title>Group</title>
    <desc>Created with Sketch.</desc>
    <defs></defs>
    <g id="Page-1" stroke="none" stroke-width="1" fill="none" fill-rule="evenodd">
        <g id="Point" transform="translate(-498.000000, -2672.000000)">
            <g id="Group" transform="translate(498.000000, 2672.000000)">
                <path d="M157.469766,31.4121683 L157.469766,61.8274175 C157.469766,73.2921942 122.377734,82.5860194 79.0901719,82.5860194 C35.8026094,82.5860194 0.710578125,73.2921942 0.710578125,61.8274175 L0.710578125,32.7219159 C0.702515625,26.7154175 6.27975,31.0912104 6.27975,31.0912104 C17.8272656,38.7423689 46.0742344,44.1488155 79.0901719,44.1488155 C113.609766,44.1488155 142.916953,38.2380065 153.374016,30.0306537 C153.374016,30.0306537 157.489922,25.8641812 157.469766,31.4121683" id="Fill-3717" fill="#343465"></path>
                <path d="M154.579359,20.3740065 C154.579359,31.4181489 120.781359,40.3690874 79.0901719,40.3690874 C37.3969688,40.3690874 3.59896875,31.4181489 3.59896875,20.3740065 C3.59896875,9.33185761 37.3969688,0.380919094 79.0901719,0.380919094 C120.781359,0.380919094 154.579359,9.33185761 154.579359,20.3740065" id="Fill-3718" fill="#343465"></path>
                <path d="M48.6098906,12.2184854 L48.6098906,20.0550421 C48.6098906,21.4365566 48.6098906,25.9359482 42.8169844,25.9359482 C37.0059375,25.9359482 37.0059375,21.4186149 37.0059375,20.0550421 L37.0059375,12.2184854 L39.4267031,12.2184854 L39.4267031,19.9354304 C39.4267031,21.2511586 39.4267031,23.7610097 42.8169844,23.7610097 C46.1911406,23.7610097 46.1911406,21.2511586 46.1911406,19.9354304 L46.1911406,12.2184854 L48.6098906,12.2184854" id="Fill-3719" fill="#FFFFFF"></path>
                <path d="M51.155625,25.6648285 L51.155625,15.6393786 L53.3183906,15.6393786 L53.3183906,16.7338252 C53.574375,16.4308091 54.3907031,15.3682589 56.2168594,15.3682589 C57.9180469,15.3682589 58.8230625,16.3291392 59.1455625,16.9870032 C59.5386094,17.7624854 59.605125,18.5200259 59.605125,20.0191586 L59.605125,25.6648285 L57.3577031,25.6648285 L57.3577031,19.9693204 C57.3577031,18.8409838 57.3577031,17.4076375 55.5839531,17.4076375 C55.2957187,17.4076375 53.4030469,17.4594693 53.4030469,19.9693204 L53.4030469,25.6648285 L51.155625,25.6648285" id="Fill-3720" fill="#FFFFFF"></path>
                <path d="M64.5010781,25.6648285 L62.2516406,25.6648285 L62.2516406,15.6393786 L64.5010781,15.6393786 L64.5010781,25.6648285 Z M64.62,14.3575405 L62.1307031,14.3575405 L62.1307031,11.9653074 L64.62,11.9653074 L64.62,14.3575405 Z" id="Fill-3721" fill="#FFFFFF"></path>
                <polyline id="Fill-3722" fill="#FFFFFF" points="72.9203437 15.6393786 75.2725781 15.6393786 72.102 25.6648285 69.376875 25.6648285 66.2224219 15.6393786 68.5585312 15.6393786 70.7394375 23.2387055 72.9203437 15.6393786"></polyline>
                <path d="M83.4015938,19.6663042 C83.1456094,17.4076375 81.4585313,17.3079612 81.0150938,17.3079612 C80.6422031,17.3079612 78.9208594,17.3916893 78.6144844,19.6663042 L83.4015938,19.6663042 Z M78.5802188,21.3687767 C78.64875,22.0246472 78.8341875,23.9643495 81.664125,23.9643495 C83.1456094,23.9643495 84.0163594,23.5596634 84.8326875,23.1370356 L84.8326875,25.2940324 C84.3227344,25.4973722 83.2322813,25.9359482 81.5613281,25.9359482 C77.3023125,25.9359482 76.3489219,22.7502913 76.3489219,20.7268608 C76.3489219,17.5611392 78.2899688,15.3682589 81.051375,15.3682589 C82.1579531,15.3682589 84.1876875,15.7749385 85.1390625,18.0993916 C85.5825,19.144 85.6510313,20.3740065 85.6328906,21.3687767 L78.5802188,21.3687767 Z" id="Fill-3723" fill="#FFFFFF"></path>
                <path d="M87.7170469,25.6648285 L87.7170469,15.6393786 L89.8979531,15.6393786 L89.8979531,16.751767 C90.90375,15.2506408 92.5202812,15.3523107 92.9818594,15.3862006 L92.9818594,17.4076375 C91.3975781,17.3239094 89.9664844,17.8123236 89.9664844,20.0709903 L89.9664844,25.6648285 L87.7170469,25.6648285" id="Fill-3724" fill="#FFFFFF"></path>
                <path d="M100.619063,18.0814498 C99.9377813,17.6787573 99.1879688,17.4076375 98.3535,17.4076375 C97.7911406,17.4076375 96.87,17.5930356 96.87,18.4362977 C96.87,19.1599482 97.2267656,19.2795599 99.1698281,19.8855922 C100.157484,20.1886084 101.776031,20.7448026 101.776031,22.7662395 C101.776031,25.0249061 99.7160625,25.9359482 97.5674063,25.9359482 C97.2106406,25.9359482 95.6424844,25.9359482 94.1267344,25.0587961 L94.8765469,23.1031456 C95.2695938,23.3403754 96.2209688,23.8965696 97.6702031,23.8965696 C99.3068906,23.8965696 99.5286094,23.0871974 99.5286094,22.734343 C99.5286094,21.9748091 99.0347813,21.8053592 97.2449063,21.2671068 C95.983125,20.8803625 94.6205625,20.2563883 94.6205625,18.4203495 C94.6205625,16.6321553 96.1040625,15.3682589 98.3010938,15.3682589 C99.3572813,15.3682589 100.260281,15.6214369 101.197547,16.0759612 L100.619063,18.0814498" id="Fill-3725" fill="#FFFFFF"></path>
                <path d="M106.12575,25.6648285 L103.876312,25.6648285 L103.876312,15.6393786 L106.12575,15.6393786 L106.12575,25.6648285 Z M106.244672,14.3575405 L103.757391,14.3575405 L103.757391,11.9653074 L106.244672,11.9653074 L106.244672,14.3575405 Z" id="Fill-3726" fill="#FFFFFF"></path>
                <path d="M109.213687,12.7407896 L111.461109,12.7407896 L111.461109,15.6393786 L114.307172,15.6393786 L114.307172,17.6787573 L111.461109,17.6787573 L111.461109,22.515055 C111.461109,23.3742654 111.563906,23.8965696 112.755141,23.8965696 C113.267109,23.8965696 113.863734,23.8128414 114.153984,23.7789515 L114.153984,25.8003883 C113.845594,25.8342783 113.113922,25.9359482 112.245187,25.9359482 C109.213687,25.9359482 109.213687,24.1497476 109.213687,22.6486214 L109.213687,17.6787573 L108.002297,17.6787573 L108.002297,15.6393786 L109.213687,15.6393786 L109.213687,12.7407896" id="Fill-3727" fill="#FFFFFF"></path>
                <polyline id="Fill-3728" fill="#FFFFFF" points="118.673016 24.5863301 115.077141 15.6393786 117.429375 15.6393786 119.829984 21.8392492 122.234625 15.6393786 124.584844 15.6393786 118.739531 30.1482718 116.473969 30.1482718 118.673016 24.5863301"></polyline>
                <path d="M43.6857188,65.0668997 L45.898875,65.0668997 C47.9265938,65.0668997 51.1838438,65.0668997 51.1838438,60.5156764 C51.1838438,55.9664466 47.9104688,55.9664466 45.9694219,55.9664466 L43.6857188,55.9664466 L43.6857188,65.0668997 Z M41.2810781,53.7935016 L46.4108438,53.7935016 C47.8943438,53.7935016 48.6764063,53.8772298 49.8374063,54.2978641 C53.1591563,55.5278706 53.6025938,58.9826537 53.6025938,60.5156764 C53.6025938,61.9649709 53.2256719,65.4376958 49.8515156,66.7354822 C48.882,67.1062783 47.7915469,67.2398447 46.2757969,67.2398447 L41.2810781,67.2398447 L41.2810781,53.7935016 Z" id="Fill-3729" fill="#FFFFFF"></path>
                <path d="M61.701375,62.301877 C61.1894063,62.5391068 61.0543594,62.555055 59.8107188,62.7245049 C58.7363906,62.8600647 57.3919688,63.027521 57.3919688,64.3591974 C57.3919688,65.0330097 57.8172656,65.6071456 58.8049219,65.6071456 C59.0085,65.6071456 60.6451875,65.6071456 61.701375,63.9206214 L61.701375,62.301877 Z M56.1120469,57.8383689 C57.2206406,57.2482848 58.3272188,56.9432751 59.5869844,56.9432751 C60.5766563,56.9432751 62.1609375,57.1127249 63.1667344,58.2749515 C63.6605625,58.8650356 63.8822813,59.5906796 63.8822813,60.9542524 L63.8822813,64.9492816 C63.8822813,66.3806343 64.120125,66.9208803 64.2753281,67.2398447 L62.0762813,67.2398447 C61.9392188,66.9547702 61.8706875,66.7015922 61.8545625,66.213178 C60.5605313,67.4930227 59.0931563,67.5109644 58.6517344,67.5109644 C56.88,67.5109644 55.2614531,66.4982524 55.2614531,64.4429256 C55.2614531,61.5283883 58.2082969,61.1396505 60.0667031,60.9044142 C61.1732813,60.7529061 61.6671094,60.703068 61.6671094,60.0790939 C61.6671094,59.437178 61.0039688,58.9328155 59.6575313,58.9328155 C58.4300156,58.9328155 57.3395625,59.3195599 56.3015156,59.9614757 L56.1120469,57.8383689 Z" id="Fill-3730" fill="#FFFFFF"></path>
                <path d="M66.9359531,54.3158058 L69.183375,54.3158058 L69.183375,57.2143948 L72.0294375,57.2143948 L72.0294375,59.2537735 L69.183375,59.2537735 L69.183375,64.0900712 C69.183375,64.9492816 69.2861719,65.4715858 70.4794219,65.4715858 C70.9913906,65.4715858 71.5880156,65.3878576 71.87625,65.3539676 L71.87625,67.3754045 C71.569875,67.4092945 70.8382031,67.5109644 69.9694687,67.5109644 C66.9359531,67.5109644 66.9359531,65.7247638 66.9359531,64.2236375 L66.9359531,59.2537735 L65.7245625,59.2537735 L65.7245625,57.2143948 L66.9359531,57.2143948 L66.9359531,54.3158058" id="Fill-3731" fill="#FFFFFF"></path>
                <path d="M79.7714531,62.301877 C79.2594844,62.5391068 79.1244375,62.555055 77.8807969,62.7245049 C76.8044531,62.8600647 75.4600312,63.027521 75.4600312,64.3591974 C75.4600312,65.0330097 75.8853281,65.6071456 76.875,65.6071456 C77.0785781,65.6071456 78.7152656,65.6071456 79.7714531,63.9206214 L79.7714531,62.301877 Z M74.182125,57.8383689 C75.2907187,57.2482848 76.3972969,56.9432751 77.6570625,56.9432751 C78.6467344,56.9432751 80.2310156,57.1127249 81.2368125,58.2749515 C81.7306406,58.8650356 81.9523594,59.5906796 81.9523594,60.9542524 L81.9523594,64.9492816 C81.9523594,66.3806343 82.1902031,66.9208803 82.3454062,67.2398447 L80.1463594,67.2398447 C80.0092969,66.9547702 79.9407656,66.7015922 79.9246406,66.213178 C78.6306094,67.4930227 77.1632344,67.5109644 76.7197969,67.5109644 C74.9500781,67.5109644 73.3315312,66.4982524 73.3315312,64.4429256 C73.3315312,61.5283883 76.278375,61.1396505 78.1367812,60.9044142 C79.2413437,60.7529061 79.7371875,60.703068 79.7371875,60.0790939 C79.7371875,59.437178 79.0720312,58.9328155 77.7255937,58.9328155 C76.5000937,58.9328155 75.4096406,59.3195599 74.3695781,59.9614757 L74.182125,57.8383689 Z" id="Fill-3732" fill="#FFFFFF"></path>
                <path d="M89.4182344,65.4715858 C91.1899687,65.4715858 92.0062969,63.9704595 92.0062969,62.2181489 C92.0062969,60.4658382 91.1899687,58.9826537 89.4182344,58.9826537 C88.565625,58.9826537 86.7777656,59.4212298 86.7777656,62.2181489 C86.7777656,65.0170615 88.5495,65.4715858 89.4182344,65.4715858 Z M86.759625,67.2398447 L84.5787187,67.2398447 L84.5787187,53.1695275 L86.8281562,53.1695275 L86.8281562,58.209165 C87.3038437,57.736699 88.2249844,56.9432751 89.758875,56.9432751 C92.7057187,56.9432751 94.25775,59.4890097 94.25775,62.2181489 C94.25775,65.1346796 92.5706719,67.5109644 89.7770156,67.5109644 C88.0717969,67.5109644 87.2897344,66.685644 86.759625,66.1274563 L86.759625,67.2398447 Z" id="Fill-3733" fill="#FFFFFF"></path>
                <path d="M102.322266,62.301877 C101.810297,62.5391068 101.673234,62.555055 100.429594,62.7245049 C99.3552656,62.8600647 98.0108438,63.027521 98.0108438,64.3591974 C98.0108438,65.0330097 98.4361406,65.6071456 99.4237969,65.6071456 C99.6293906,65.6071456 101.264063,65.6071456 102.322266,63.9206214 L102.322266,62.301877 Z M96.7309219,57.8383689 C97.8395156,57.2482848 98.9481094,56.9432751 100.207875,56.9432751 C101.195531,56.9432751 102.779813,57.1127249 103.785609,58.2749515 C104.279438,58.8650356 104.503172,59.5906796 104.503172,60.9542524 L104.503172,64.9492816 C104.503172,66.3806343 104.741016,66.9208803 104.894203,67.2398447 L102.695156,67.2398447 C102.560109,66.9547702 102.491578,66.7015922 102.475453,66.213178 C101.179406,67.4930227 99.7140469,67.5109644 99.2706094,67.5109644 C97.498875,67.5109644 95.8803281,66.4982524 95.8803281,64.4429256 C95.8803281,61.5283883 98.8271719,61.1396505 100.685578,60.9044142 C101.792156,60.7529061 102.285984,60.703068 102.285984,60.0790939 C102.285984,59.437178 101.622844,58.9328155 100.276406,58.9328155 C99.0509063,58.9328155 97.9604531,59.3195599 96.9203906,59.9614757 L96.7309219,57.8383689 Z" id="Fill-3734" fill="#FFFFFF"></path>
                <path d="M112.906313,59.656466 C112.225031,59.2537735 111.475219,58.9826537 110.64075,58.9826537 C110.076375,58.9826537 109.155234,59.1680518 109.155234,60.0113139 C109.155234,60.7349644 109.514016,60.8545761 111.457078,61.4606084 C112.444734,61.7636246 114.063281,62.3198188 114.063281,64.3412557 C114.063281,66.5999223 112.001297,67.5109644 109.854656,67.5109644 C109.497891,67.5109644 107.929734,67.5109644 106.413984,66.6338123 L107.163797,64.6801553 C107.554828,64.9153916 108.508219,65.4715858 109.957453,65.4715858 C111.592125,65.4715858 111.815859,64.6622136 111.815859,64.3093592 C111.815859,63.5498252 111.320016,63.3803754 109.532156,62.842123 C108.270375,62.4533851 106.907812,61.8314045 106.907812,59.9953657 C106.907812,58.209165 108.389297,56.9432751 110.588344,56.9432751 C111.644531,56.9432751 112.547531,57.1964531 113.484797,57.6509773 L112.906313,59.656466" id="Fill-3735" fill="#FFFFFF"></path>
                <path d="M122.585344,61.2413204 C122.329359,58.9826537 120.644297,58.8829773 120.200859,58.8829773 C119.825953,58.8829773 118.106625,58.9667055 117.798234,61.2413204 L122.585344,61.2413204 Z M117.765984,62.9437929 C117.8325,63.601657 118.019953,65.5373722 120.847875,65.5373722 C122.329359,65.5373722 123.200109,65.1346796 124.016438,64.7120518 L124.016438,66.8690485 C123.506484,67.0723883 122.416031,67.5109644 120.745078,67.5109644 C116.486063,67.5109644 115.532672,64.3253074 115.532672,62.301877 C115.532672,59.1361553 117.473719,56.9432751 120.235125,56.9432751 C121.341703,56.9432751 123.369422,57.3499547 124.324828,59.6744078 C124.76625,60.7190162 124.836797,61.9490227 124.818656,62.9437929 L117.765984,62.9437929 Z" id="Fill-3736" fill="#FFFFFF"></path>
            </g>
        </g>
    </g>
</svg>